<svg xmlns="http://www.w3.org/2000/svg" viewBox="0 0 236.17 289.5"><defs><style>.cls-1{fill:#ecfee8;}.cls-2{fill:#aa0f7e;}</style></defs><title>Asset 22</title><g id="Layer_2" data-name="Layer 2"><g id="Layer_1-2" data-name="Layer 1"><path class="cls-1" d="M222.68,256.33,22.61,271.59A15.41,15.41,0,0,1,5.3,256.81L0,30.52a15.4,15.4,0,0,1,14.78-15.9L220.15,9.53a15.4,15.4,0,0,1,16,15.39V241A15.41,15.41,0,0,1,222.68,256.33Z"/><path class="cls-1" d="M165,250.08s.06,38.78-35.49,39.42c0,0,19.68-12.06,10.79-39.35Z"/><polygon class="cls-2" points="25.53 22.22 16.64 22.22 19.82 0 26.17 0 25.53 22.22"/><polygon class="cls-2" points="38.86 22.22 29.98 22.22 31.24 0 37.59 0 38.86 22.22"/><polygon class="cls-2" points="204.63 268.61 195.74 268.61 198.91 246.39 205.26 246.39 204.63 268.61"/><polygon class="cls-2" points="217.96 268.61 209.07 268.61 210.34 246.39 216.69 246.39 217.96 268.61"/></g></g></svg>